PathFileType	4	(X/Y/Z)	OpenSim_Sub10_EMGStiffKnee_Accel.trc
DataRate	CameraRate	NumFrames	NumMarkers	Units	OrigDataRate	OrigDataStartFrame	OrigNumFrames
100	100	41	8	m	100	7325	8371
Frame#	Time	torso_imu_offset_imu	pelvis_imu_offset_imu	tibia_r_imu_offset_imu	femur_r_imu_offset_imu	tibia_l_imu_offset_imu	femur_l_imu_offset_imu	toes_r_imu_offset_imu	toes_l_imu_offset_imu
				X1	Y1	Z1	X2	Y2	Z2	X3	Y3	Z3	X4	Y4	Z4	X5	Y5	Z5	X6	Y6	Z6	X7	Y7	Z7	X8		Y8	Z8	

7325	73.24000000	8.28859700	-1.39849000	4.97633200	7.95063000	1.47523800	4.60971900	10.06114100	-1.33280100	0.17106300	9.88009600	0.51999800	-0.08197000	9.83664600	0.46220400	2.69244500	8.03276300	1.23434900	-0.04158000	4.81681500	-0.31500800	8.69403000	4.22604500	2.60362100	12.58843300
7326	73.25000000	8.46053800	-1.29935900	5.16431100	7.90040100	1.71167000	4.60134600	9.66879700	-0.89816500	-0.00097900	9.50482400	0.00630000	-0.29037400	10.56902500	0.18876300	2.88745200	8.58373000	1.46393800	-0.04837400	4.76104100	-0.32546400	8.86998600	5.76808900	2.82637400	13.44574200
7327	73.26000000	8.71520300	-1.15548500	5.29634000	7.98102800	2.02737500	4.53895800	9.63725600	-0.05911200	0.11767700	9.35164400	-0.61217800	-0.41910800	11.04983100	-0.24241900	2.82556500	8.99930100	1.55332900	-0.01654000	5.11064900	-0.26500100	8.62923100	7.35604200	3.27282000	14.28059600
7328	73.27000000	8.90875200	-1.11057300	5.38190400	8.11387700	2.45802100	4.45244800	9.97689700	0.93936100	0.12728400	9.22148300	-1.25103700	-0.56442600	11.03085200	-0.74430100	2.88213100	9.20591500	1.46889700	0.16732800	4.83792000	-0.26912000	8.83285200	8.26756800	3.89168800	14.64692700
7329	73.28000000	9.16474500	-1.20199600	5.41519100	8.24107200	2.81963500	4.44407400	10.21544600	1.90459700	0.17666900	9.03361100	-1.78879200	-0.67917100	11.02707600	-1.12589400	2.75939200	9.22890500	1.32069000	0.33794400	4.95845800	-0.28401900	8.76970300	8.38009100	4.08205000	14.39929300
7330	73.29000000	9.24585500	-1.39803100	5.48423500	8.37279700	3.12497100	4.32141100	10.10965900	2.53673300	0.31682900	8.97536800	-1.94117300	-0.81819400	11.06003500	-0.96439500	2.57937000	9.25238700	1.41886800	0.58610200	4.93595700	-0.13995800	8.72841800	8.79636100	3.70911200	14.06431900
7331	73.30000000	9.23488000	-1.59503700	5.48950300	8.42217200	3.37005200	4.26610300	9.82159300	2.74462600	0.27509900	8.97163700	-1.61627100	-0.98314900	11.16860200	-0.58725500	2.54353100	9.33455200	1.57520900	0.83891700	5.34970200	-0.00717600	8.63121500	9.54191300	3.28073300	13.88734600
7332	73.31000000	9.31438600	-1.68034800	5.51825100	8.45414000	3.60326100	4.27883200	9.55637600	2.47029600	0.25666900	8.94516200	-1.05642100	-0.98138000	11.41204400	-0.35324500	2.56408800	9.46433900	2.02186300	0.91602400	4.92908200	0.00834900	8.80099700	9.89946700	3.07908500	13.45078600
7333	73.32000000	9.43025300	-1.65951000	5.61769700	8.47893200	3.75833500	4.35103600	9.66245500	2.04142300	0.01705800	9.07046500	-0.45153900	-0.84532400	11.74245800	-0.47837100	2.59707800	9.60011200	2.62429000	0.70594700	4.77565200	-0.25856300	8.87337100	9.96706300	2.92256400	12.97887400
7334	73.33000000	9.47989200	-1.60061100	5.64692200	8.49368300	3.78767900	4.30299300	10.03366000	1.52650400	-0.18998100	9.35464700	0.12149300	-0.71160900	11.77320800	-0.85806200	2.60374300	9.52652000	3.39560600	0.47244500	4.74554100	-0.27565500	9.01523600	9.70649400	2.67646300	12.25962700
7335	73.34000000	9.56036800	-1.46669700	5.60886800	8.53000700	3.67151800	4.18225800	10.38697600	1.15802600	-0.37546000	9.58579500	0.64264800	-0.77067500	11.56308100	-1.31961000	2.48229900	9.25775300	4.24286600	0.34764200	4.96175600	-0.31812000	8.75595100	9.43335500	2.64906800	11.80578500
7336	73.35000000	9.56031100	-1.31605000	5.62844800	8.50458500	3.51615600	4.14813200	10.52878800	0.96079600	-0.34376200	9.63619000	1.06034900	-0.80304800	11.20432100	-1.51975000	2.09241600	8.82139400	4.94426300	0.23713100	4.73784600	-0.29343700	8.89682100	9.90392000	1.56961700	11.49915200
7337	73.36000000	9.62174200	-1.34303800	5.57682900	8.48491200	3.30062400	4.03735600	10.38071400	0.91795200	-0.61022800	9.44476000	1.30012600	-0.68641300	11.05161400	-1.24093100	1.71952200	8.33643500	5.34129400	0.15270900	4.73390500	-0.45748000	8.93599300	10.38057300	1.39336800	11.44109000
7338	73.37000000	9.50116600	-1.40177700	5.60555500	8.42233300	3.06927400	3.99867700	10.25013200	1.14007900	-0.65261500	9.34025900	1.42115800	-0.60853500	11.01808800	-0.90726300	1.41085200	8.08980800	5.37432600	0.10369600	4.68430800	-0.45855300	8.93446100	10.40753200	0.92915700	10.94575100
7339	73.38000000	9.28660300	-1.43584300	5.58424700	8.38565700	2.95539600	3.90167400	10.20587000	1.63070400	-0.47272600	9.30097300	1.51634500	-0.46049900	10.83343400	-0.52359800	1.10038800	7.99821100	5.31197300	0.08194600	4.75358900	-0.64200100	8.80879900	10.16859500	0.50616100	9.97361900
7340	73.39000000	9.16840400	-1.49952600	5.58398500	8.33666000	2.92390500	3.83209800	10.15939000	2.01832500	0.09437300	9.30722800	1.61846700	-0.37140000	10.44998100	-0.27200500	1.07294200	8.09015400	5.15845500	0.18648400	5.02233300	-0.42664600	8.64740800	10.52431900	1.11019400	9.43463400
7341	73.40000000	9.04824900	-1.50756300	5.58823800	8.23858600	2.89868400	3.78409900	9.91389400	2.18494500	0.31792700	9.32436100	1.73772500	-0.46086000	10.15532900	-0.31442700	1.59084900	8.20904500	5.31789500	0.40478100	4.93004100	-0.21934100	8.74942900	10.80182100	0.43945300	8.51941500
7342	73.41000000	9.00272200	-1.50085400	5.58015900	8.17890000	2.96004200	3.79486400	9.73445100	2.09963200	0.21294100	9.30787400	1.77314100	-0.41650600	9.73750800	-0.55273900	1.99393600	8.45612000	5.22944000	0.43406400	4.85703900	0.06571900	8.92750400	10.82473400	-0.30963500	7.59984900
7343	73.42000000	8.99971200	-1.49564100	5.63205000	8.19814000	3.00984900	3.85149600	9.92423500	1.68911200	-0.05029900	9.40957600	1.70681300	-0.32802200	9.18463400	-0.63630600	2.02764100	8.61180100	5.21002000	0.60903100	4.70329300	-0.26584500	8.97078800	10.78293000	-0.44118700	6.97028600
7344	73.43000000	8.97121200	-1.40266800	5.67529400	8.21512300	3.16356700	3.76512000	10.27083000	1.07941500	-0.09807600	9.55271700	1.65553900	-0.19963300	8.79797700	-0.50823500	1.76001700	8.68080100	4.86990800	0.78701600	5.08619200	-0.58218100	8.64726400	10.83335200	0.09845300	6.74574400
7345	73.44000000	8.91669200	-1.32240600	5.73641200	8.26883800	3.36528100	3.61432100	10.31662000	0.53273100	0.06105700	9.60829800	1.60711700	-0.21161500	8.79330900	-0.46587800	1.40702000	8.67384100	4.44288600	1.00327000	4.87695900	-0.50316700	8.79967700	10.66798400	0.48670400	6.61099100
7346	73.45000000	8.89641000	-1.21553800	5.70296900	8.31794800	3.48140800	3.56153000	10.11841000	0.17603600	0.02299800	9.62066000	1.47078600	-0.28077600	9.12915400	-0.58850700	1.16716800	8.69522700	4.03878800	1.05567900	4.69087100	-0.50173100	8.85853000	10.01914500	0.54667500	6.18107900
7347	73.46000000	8.91851800	-1.14456200	5.73799300	8.40101700	3.67639200	3.48261800	9.87858300	0.10209800	-0.18340600	9.58530200	1.11709500	-0.35388800	9.14366800	-0.81550100	1.21148100	8.64311500	3.59135300	1.09925700	4.67739900	-0.73208100	8.93760700	9.18081100	0.70354700	5.81184500
7348	73.47000000	8.91924900	-1.11766200	5.74718900	8.53128000	3.71486500	3.31158700	9.83870700	0.36571600	-0.16693500	9.59152300	0.65329200	-0.40000200	8.86809600	-1.04578100	1.26703100	8.60331700	3.15579600	1.04302700	4.85498800	-0.92365600	8.60253900	8.72025900	0.86668000	5.74896800
7349	73.48000000	9.07704100	-1.16019200	5.90269000	8.52370800	3.69378200	3.14454900	10.09202100	0.68071200	-0.22715900	9.55742200	0.19289000	-0.42392200	8.73478800	-0.99596700	1.30055200	8.49103200	2.97738500	0.95222100	5.14413100	-0.42418400	8.60167200	8.71555800	1.39848500	6.08801900
7350	73.49000000	9.18014300	-1.15195900	5.85884800	8.60448200	3.59989700	2.97564500	10.09861600	1.02629700	0.06242500	9.53980300	-0.18932800	-0.54333200	8.87632900	-0.76885700	1.38280700	8.41520800	2.80659000	0.86149400	5.08314500	-0.05187900	8.80327200	8.78671800	1.72639800	6.44948100
7351	73.50000000	9.27678200	-1.17984400	5.87938400	8.66923400	3.47904600	2.85300700	9.95646700	1.20013700	1.05065400	9.71009500	-0.42593600	-0.68546200	9.04053000	-0.62424500	1.29122300	8.40398500	2.89861200	0.74769400	5.05029500	0.48840500	9.02931800	8.73956600	1.57140300	6.51737000
7352	73.51000000	9.30359000	-1.14222400	6.07326200	8.67173100	3.30779000	2.75850800	10.03743500	1.08701100	0.78096500	9.38145100	-0.86651100	-0.67856400	8.99803800	-0.63479300	1.12248200	8.31181200	3.08352700	0.55825800	5.04798400	0.38580800	8.93688000	8.49441000	1.58728800	6.45272000
7353	73.52000000	9.34536400	-1.16400100	6.12528700	8.74505100	3.14305600	2.59913300	10.31205800	0.79724100	0.80594200	9.53217700	-0.98551600	-0.68659800	8.91132800	-0.90567100	0.93992300	8.21988800	3.36984500	0.44708500	5.29546100	0.30408300	8.85739900	8.02147200	1.65975300	6.13838500
7354	73.53000000	9.35879300	-1.13346400	6.18080800	8.88948200	3.00820900	2.44791300	10.51810500	0.58679500	0.81373900	9.66635600	-1.04875700	-0.73614500	8.69297700	-1.09570600	0.73977800	7.98163400	3.66876800	0.43019400	5.20965100	0.20768500	8.94103200	7.76404300	1.66253500	5.87539200
7355	73.54000000	9.32460100	-1.14770400	6.21098000	8.96000000	2.75067600	2.31056700	10.56414900	0.27086800	0.68543700	9.73816600	-1.09380600	-0.74349300	8.36991500	-1.02461700	0.57223100	7.77542900	3.83489000	0.36814200	5.11000900	-0.01585800	8.84233500	8.46809200	1.65227400	5.91965400
7356	73.55000000	9.28477600	-1.37255800	6.11901900	8.84195600	2.61503400	2.28027700	10.42880700	0.07344300	0.59263200	9.81895600	-1.17781100	-0.64195600	8.17422900	-0.91459400	0.30098800	7.59404600	3.94584600	0.27516900	4.98794000	-0.21441300	9.01948300	8.83616900	1.59684600	5.71223900
7357	73.56000000	9.31869400	-1.44505300	5.98187500	8.64945500	2.57442100	2.14834000	10.38287000	-0.15829700	0.68899200	9.89476600	-1.23382400	-0.53064800	8.14833800	-0.87867100	0.27860100	7.46351500	4.17515000	0.01408900	5.20662400	-0.25078200	8.77033100	8.20308800	0.77045800	4.66172500
7358	73.57000000	9.33688800	-1.50023200	5.96910300	8.52475700	2.56632300	1.99287800	10.56831400	-0.17129000	0.59216700	9.88975900	-1.30957900	-0.31204200	7.99659300	-1.54243200	0.28433400	7.34487200	4.18108600	-0.45591200	5.25374400	-0.07525000	8.90547100	8.43603700	0.96775100	4.51158200
7359	73.58000000	9.28288300	-1.54106200	5.93077300	8.39966200	2.43212000	1.82431700	10.74069800	-0.04297900	0.66870300	9.92633300	-1.44064800	-0.18047200	7.34825800	-2.93603000	-0.00247900	7.14811200	3.94595900	-0.80156100	5.11013800	-0.21790200	9.09872700	8.92076600	1.25068299	4.89374400
7360	73.59000000	9.32843100	-1.62006700	5.70496400	8.44358700	2.38475100	1.77272500	10.70454300	-0.16779400	0.88412500	9.90271000	-1.47766100	-0.14505500	6.85563100	-4.59033300	0.09678600	6.70496300	3.49208600	-0.57065600	5.20099000	-0.43486100	8.92168600	9.91836901	9.48370500	-2.77540399
7361	73.60000000	9.52855600	-1.73763500	5.82062500	8.59350300	2.11693300	2.33292500	10.53689200	-0.58572800	0.95718500	9.77981900	-1.59129300	-0.17652700	7.51401500	-4.13339900	-0.56128700	6.58561100	3.02893500	-0.29488300	5.31925200	-0.42884600	9.15898700	-3.24052700	-4.22827999	-4.23084402
7362	73.61000000	10.03623700	-1.84449700	6.18574000	9.07521400	1.87247100	3.40426000	10.71063600	-1.43928900	0.82570100	9.72171800	-1.87250000	-0.24422700	10.82770100	-1.53402800	3.16102900	7.81073900	2.70418500	0.06697000	5.13703000	-0.94635600	9.29388000	15.65279098	-4.02404900	19.24183098
7363	73.62000000	10.56195500	-1.81844900	6.67842600	10.01955300	1.64925800	5.20207200	11.18379600	-2.59358900	1.46611800	9.66082500	-2.40077700	-0.66807200	14.48753400	0.20598300	4.94778900	11.24383299	2.65365200	0.71968800	4.84400200	-0.64879000	9.54450600	14.92985301	-7.87879099	23.94423301
7364	73.63000000	11.29113700	-1.78305800	7.26421100	11.07572900	0.82214600	7.25731200	12.06585000	-3.91227700	1.60964700	9.59158100	-2.94820900	-1.04574500	19.35278099	5.76820099	4.84235900	18.31135899	3.69007500	-0.01332200	4.40488600	-0.40300300	10.25779000	10.05165700	-16.34679901	12.33930801
7365	73.64000000	12.02885400	-1.47471500	7.50202400	12.71894000	-0.66197800	7.78285200	13.39606000	-5.46111000	1.57905800	9.46103800	-3.46547900	-1.05397800	23.04784300	7.78929200	8.58558300	23.85360400	5.34085100	-1.21842300	3.63572800	-1.12455800	10.49953800	16.14234799	5.34798798	17.44390299
